<svg width="206" height="183" viewBox="0 0 206 183" fill="none" xmlns="http://www.w3.org/2000/svg">
<path d="M94 46H103V169H94V46Z" fill="#00A0E3"/>
<path d="M0.634406 42H17V173H4.88582e-07V42.5L0.634406 42Z" fill="#00A0E3"/>
<path d="M54.9558 4.01005e-06L65.2825 13.681L0 62.9573L2.3151e-07 41.4816L54.9558 4.01005e-06Z" fill="#00A0E3"/>
<path d="M103 36.3892V57.7205L44.7213 13.5481L54.9901 0L103 36.3892Z" fill="#00A0E3"/>
<path d="M47 9H64V140H47V9Z" fill="#00A0E3"/>
<path d="M102.98 161.367L102.98 182.667L47.0001 140.237V119.109L102.98 161.367Z" fill="#00A0E3"/>
<path d="M112 46.0007L103 46V169.003H112V46.0007Z" fill="#00A0E3"/>
<path d="M205.366 42.0006H189V173.003H206V42.5006L205.366 42.0006Z" fill="#00A0E3"/>
<path d="M151.044 4.01011e-06L140.718 13.6812L206 62.9582V41.4822L151.044 4.01011e-06Z" fill="#00A0E3"/>
<path d="M103 36.3892V57.7205L161.279 13.5483L151.01 0L103 36.3892Z" fill="#00A0E3"/>
<path d="M159 9.00014H142V140.002H159V9.00014Z" fill="#00A0E3"/>
<path d="M103.02 161.37L103.02 182.67L159 140.239V119.111L103.02 161.37Z" fill="#00A0E3"/>
</svg>
