<?xml version="1.0" standalone="no"?><svg xmlns:xlink="http://www.w3.org/1999/xlink" xmlns="http://www.w3.org/2000/svg" viewBox="0 0 1000 636.3733519873308" preserveAspectRatio="xMaxYMax slice"><g transform="scale(1.6192706157438443)"><rect x="0" y="0" width="617.5714285714286" height="393" fill="#ffffff"/><rect x="56.142857142857146" y="56.142857142857146" width="56.142857142857146" height="56.142857142857146" fill="#ffffff"/><rect x="84.21" y="56.14" width="28.07" height="28.07" fill="#e6ecf3"/><rect x="168.42857142857144" y="56.142857142857146" width="56.142857142857146" height="56.142857142857146" fill="#ffffff"/><rect x="168.43" y="84.21" width="28.07" height="28.07" fill="#cee9ff"/><rect x="224.57142857142858" y="56.142857142857146" width="56.142857142857146" height="56.142857142857146" fill="#ffffff"/><rect x="224.57" y="56.14" width="28.07" height="28.07" fill="#eef2f7"/><rect x="252.64" y="56.14" width="28.07" height="28.07" fill="#b4ddfe"/><rect x="280.7142857142857" y="56.142857142857146" width="56.142857142857146" height="56.142857142857146" fill="#ffffff"/><rect x="0" y="112.28571428571429" width="56.142857142857146" height="56.142857142857146" fill="#ffffff"/><rect x="28.07" y="140.36" width="28.07" height="28.07" fill="#cce8ff"/><rect x="112.28571428571429" y="112.28571428571429" width="56.142857142857146" height="56.142857142857146" fill="#ffffff"/><rect x="140.36" y="112.29" width="28.07" height="28.07" fill="#f2f5f9"/><rect x="140.36" y="140.36" width="28.07" height="28.07" fill="#e1e8f0"/><rect x="168.42857142857144" y="112.28571428571429" width="56.142857142857146" height="56.142857142857146" fill="#ffffff"/><rect x="168.43" y="112.29" width="28.07" height="28.07" fill="#9ed3fe"/><rect x="168.43" y="140.36" width="28.07" height="28.07" fill="#b3dcfe"/><rect x="224.57142857142858" y="112.28571428571429" width="56.142857142857146" height="56.142857142857146" fill="#ffffff"/><rect x="224.57" y="112.29" width="28.07" height="28.07" fill="#cbd7e5"/><rect x="224.57" y="140.36" width="28.07" height="28.07" fill="#a7d7fe"/><rect x="280.7142857142857" y="112.28571428571429" width="56.142857142857146" height="56.142857142857146" fill="#ffffff"/><rect x="308.79" y="112.29" width="28.07" height="28.07" fill="#e3f2ff"/><rect x="280.71" y="140.36" width="28.07" height="28.07" fill="#b8dffe"/><rect x="0" y="168.42857142857144" width="56.142857142857146" height="56.142857142857146" fill="#ffffff"/><rect x="0" y="168.43" width="28.07" height="28.07" fill="#bae0fe"/><rect x="28.07" y="168.43" width="28.07" height="28.07" fill="#c9e6ff"/><rect x="28.07" y="196.5" width="28.07" height="28.07" fill="#e8edf3"/><rect x="56.142857142857146" y="168.42857142857144" width="56.142857142857146" height="56.142857142857146" fill="#ffffff"/><rect x="56.14" y="168.43" width="28.07" height="28.07" fill="#d2dce9"/><rect x="84.21" y="168.43" width="28.07" height="28.07" fill="#c3e4ff"/><rect x="84.21" y="196.5" width="28.07" height="28.07" fill="#e2e8f0"/><rect x="168.42857142857144" y="168.42857142857144" width="56.142857142857146" height="56.142857142857146" fill="#ffffff"/><rect x="196.5" y="168.43" width="28.07" height="28.07" fill="#dae2ed"/><rect x="168.43" y="196.5" width="28.07" height="28.07" fill="#f2f5f9"/><rect x="393" y="168.42857142857144" width="56.142857142857146" height="56.142857142857146" fill="#ffffff"/><rect x="421.07" y="196.5" width="28.07" height="28.07" fill="#9dd2fe"/><rect x="449.14285714285717" y="168.42857142857144" width="56.142857142857146" height="56.142857142857146" fill="#ffffff"/><rect x="449.14" y="168.43" width="28.07" height="28.07" fill="#eff3f7"/><rect x="449.14" y="196.5" width="28.07" height="28.07" fill="#feffff"/><rect x="505.28571428571433" y="168.42857142857144" width="56.142857142857146" height="56.142857142857146" fill="#ffffff"/><rect x="533.36" y="168.43" width="28.07" height="28.07" fill="#cbd6e5"/><rect x="533.36" y="196.5" width="28.07" height="28.07" fill="#b1dbfe"/><rect x="0" y="224.57142857142858" width="56.142857142857146" height="56.142857142857146" fill="#ffffff"/><rect x="0" y="224.57" width="28.07" height="28.07" fill="#d6ecff"/><rect x="28.07" y="224.57" width="28.07" height="28.07" fill="#cfd9e7"/><rect x="0" y="252.64" width="28.07" height="28.07" fill="#d5ecff"/><rect x="56.142857142857146" y="224.57142857142858" width="56.142857142857146" height="56.142857142857146" fill="#ffffff"/><rect x="56.14" y="224.57" width="28.07" height="28.07" fill="#e5ebf2"/><rect x="84.21" y="224.57" width="28.07" height="28.07" fill="#d3dde9"/><rect x="56.14" y="252.64" width="28.07" height="28.07" fill="#aedafe"/><rect x="84.21" y="252.64" width="28.07" height="28.07" fill="#ced9e6"/><rect x="224.57142857142858" y="224.57142857142858" width="56.142857142857146" height="56.142857142857146" fill="#ffffff"/><rect x="224.57" y="252.64" width="28.07" height="28.07" fill="#d3dde9"/><rect x="252.64" y="252.64" width="28.07" height="28.07" fill="#d7edff"/><rect x="280.7142857142857" y="224.57142857142858" width="56.142857142857146" height="56.142857142857146" fill="#ffffff"/><rect x="280.71" y="224.57" width="28.07" height="28.07" fill="#d3dde9"/><rect x="308.79" y="224.57" width="28.07" height="28.07" fill="#a3d5fe"/><rect x="308.79" y="252.64" width="28.07" height="28.07" fill="#f7f9fb"/><rect x="336.8571428571429" y="224.57142857142858" width="56.142857142857146" height="56.142857142857146" fill="#ffffff"/><rect x="336.86" y="252.64" width="28.07" height="28.07" fill="#cad6e5"/><rect x="393" y="224.57142857142858" width="56.142857142857146" height="56.142857142857146" fill="#ffffff"/><rect x="393" y="224.57" width="28.07" height="28.07" fill="#9ed3fe"/><rect x="393" y="252.64" width="28.07" height="28.07" fill="#c9d5e4"/><rect x="505.28571428571433" y="224.57142857142858" width="56.142857142857146" height="56.142857142857146" fill="#ffffff"/><rect x="533.36" y="224.57" width="28.07" height="28.07" fill="#9fd3fe"/><rect x="533.36" y="252.64" width="28.07" height="28.07" fill="#a4d6fe"/><rect x="56.142857142857146" y="280.7142857142857" width="56.142857142857146" height="56.142857142857146" fill="#ffffff"/><rect x="56.14" y="280.71" width="28.07" height="28.07" fill="#d8edff"/><rect x="84.21" y="280.71" width="28.07" height="28.07" fill="#c1e3fe"/><rect x="56.14" y="308.79" width="28.07" height="28.07" fill="#e7ecf3"/><rect x="84.21" y="308.79" width="28.07" height="28.07" fill="#b9dffe"/><rect x="112.28571428571429" y="280.7142857142857" width="56.142857142857146" height="56.142857142857146" fill="#ffffff"/><rect x="112.29" y="280.71" width="28.07" height="28.07" fill="#f8fafc"/><rect x="140.36" y="280.71" width="28.07" height="28.07" fill="#e7f4ff"/><rect x="112.29" y="308.79" width="28.07" height="28.07" fill="#8eccfe"/><rect x="140.36" y="308.79" width="28.07" height="28.07" fill="#c9e6ff"/><rect x="224.57142857142858" y="280.7142857142857" width="56.142857142857146" height="56.142857142857146" fill="#ffffff"/><rect x="252.64" y="280.71" width="28.07" height="28.07" fill="#dbe3ed"/><rect x="224.57" y="308.79" width="28.07" height="28.07" fill="#e4f3ff"/><rect x="252.64" y="308.79" width="28.07" height="28.07" fill="#89c9fe"/><rect x="280.7142857142857" y="280.7142857142857" width="56.142857142857146" height="56.142857142857146" fill="#ffffff"/><rect x="280.71" y="280.71" width="28.07" height="28.07" fill="#fbfdff"/><rect x="308.79" y="280.71" width="28.07" height="28.07" fill="#cbe7ff"/><rect x="280.71" y="308.79" width="28.07" height="28.07" fill="#93cefe"/><rect x="336.8571428571429" y="280.7142857142857" width="56.142857142857146" height="56.142857142857146" fill="#ffffff"/><rect x="336.86" y="280.71" width="28.07" height="28.07" fill="#c1e3fe"/><rect x="364.93" y="280.71" width="28.07" height="28.07" fill="#cdd8e6"/><rect x="336.86" y="308.79" width="28.07" height="28.07" fill="#ebeff5"/><rect x="364.93" y="308.79" width="28.07" height="28.07" fill="#e6ecf3"/><rect x="393" y="280.7142857142857" width="56.142857142857146" height="56.142857142857146" fill="#ffffff"/><rect x="393" y="308.79" width="28.07" height="28.07" fill="#f3f6f9"/><rect x="421.07" y="308.79" width="28.07" height="28.07" fill="#a8d7fe"/><rect x="449.14285714285717" y="280.7142857142857" width="56.142857142857146" height="56.142857142857146" fill="#ffffff"/><rect x="477.21" y="280.71" width="28.07" height="28.07" fill="#f3f5f9"/><rect x="449.14" y="308.79" width="28.07" height="28.07" fill="#cfdae7"/><rect x="505.28571428571433" y="280.7142857142857" width="56.142857142857146" height="56.142857142857146" fill="#ffffff"/><rect x="505.29" y="280.71" width="28.07" height="28.07" fill="#f4f7fa"/><rect x="533.36" y="280.71" width="28.07" height="28.07" fill="#d1dbe8"/><rect x="505.29" y="308.79" width="28.07" height="28.07" fill="#eaeff4"/><rect x="533.36" y="308.79" width="28.07" height="28.07" fill="#ecf0f6"/><rect x="0" y="336.8571428571429" width="56.142857142857146" height="56.142857142857146" fill="#ffffff"/><rect x="0" y="336.86" width="28.07" height="28.07" fill="#fcfdfe"/><rect x="28.07" y="336.86" width="28.07" height="28.07" fill="#f6f8fa"/><rect x="0" y="364.93" width="28.07" height="28.07" fill="#dff0ff"/><rect x="28.07" y="364.93" width="28.07" height="28.07" fill="#feffff"/><rect x="56.142857142857146" y="336.8571428571429" width="56.142857142857146" height="56.142857142857146" fill="#ffffff"/><rect x="56.14" y="336.86" width="28.07" height="28.07" fill="#ccd7e5"/><rect x="84.21" y="336.86" width="28.07" height="28.07" fill="#d2eaff"/><rect x="56.14" y="364.93" width="28.07" height="28.07" fill="#d2dce8"/><rect x="84.21" y="364.93" width="28.07" height="28.07" fill="#a9d8fe"/><rect x="112.28571428571429" y="336.8571428571429" width="56.142857142857146" height="56.142857142857146" fill="#ffffff"/><rect x="112.29" y="336.86" width="28.07" height="28.07" fill="#aedafe"/><rect x="140.36" y="336.86" width="28.07" height="28.07" fill="#dde4ee"/><rect x="112.29" y="364.93" width="28.07" height="28.07" fill="#def0ff"/><rect x="140.36" y="364.93" width="28.07" height="28.07" fill="#f4f6f9"/><rect x="168.42857142857144" y="336.8571428571429" width="56.142857142857146" height="56.142857142857146" fill="#ffffff"/><rect x="168.43" y="336.86" width="28.07" height="28.07" fill="#8dcbfe"/><rect x="196.5" y="336.86" width="28.07" height="28.07" fill="#d5deea"/><rect x="168.43" y="364.93" width="28.07" height="28.07" fill="#d4ebff"/><rect x="196.5" y="364.93" width="28.07" height="28.07" fill="#9fd3fe"/><rect x="224.57142857142858" y="336.8571428571429" width="56.142857142857146" height="56.142857142857146" fill="#ffffff"/><rect x="224.57" y="336.86" width="28.07" height="28.07" fill="#b4ddfe"/><rect x="252.64" y="336.86" width="28.07" height="28.07" fill="#e6f3ff"/><rect x="224.57" y="364.93" width="28.07" height="28.07" fill="#abd9fe"/><rect x="252.64" y="364.93" width="28.07" height="28.07" fill="#d7e0eb"/><rect x="280.7142857142857" y="336.8571428571429" width="56.142857142857146" height="56.142857142857146" fill="#ffffff"/><rect x="280.71" y="336.86" width="28.07" height="28.07" fill="#c1e3fe"/><rect x="308.79" y="336.86" width="28.07" height="28.07" fill="#d1eaff"/><rect x="280.71" y="364.93" width="28.07" height="28.07" fill="#aedafe"/><rect x="308.79" y="364.93" width="28.07" height="28.07" fill="#97d0fe"/><rect x="336.8571428571429" y="336.8571428571429" width="56.142857142857146" height="56.142857142857146" fill="#ffffff"/><rect x="336.86" y="336.86" width="28.07" height="28.07" fill="#aedafe"/><rect x="364.93" y="336.86" width="28.07" height="28.07" fill="#e9eef4"/><rect x="336.86" y="364.93" width="28.07" height="28.07" fill="#aad8fe"/><rect x="364.93" y="364.93" width="28.07" height="28.07" fill="#b6defe"/><rect x="393" y="336.8571428571429" width="56.142857142857146" height="56.142857142857146" fill="#ffffff"/><rect x="393" y="336.86" width="28.07" height="28.07" fill="#cbe8ff"/><rect x="421.07" y="336.86" width="28.07" height="28.07" fill="#f0f3f8"/><rect x="393" y="364.93" width="28.07" height="28.07" fill="#b3ddfe"/><rect x="421.07" y="364.93" width="28.07" height="28.07" fill="#cdd8e6"/><rect x="449.14285714285717" y="336.8571428571429" width="56.142857142857146" height="56.142857142857146" fill="#ffffff"/><rect x="449.14" y="336.86" width="28.07" height="28.07" fill="#d1eaff"/><rect x="477.21" y="336.86" width="28.07" height="28.07" fill="#f3f5f9"/><rect x="449.14" y="364.93" width="28.07" height="28.07" fill="#dee5ee"/><rect x="477.21" y="364.93" width="28.07" height="28.07" fill="#f5faff"/><rect x="505.28571428571433" y="336.8571428571429" width="56.142857142857146" height="56.142857142857146" fill="#ffffff"/><rect x="505.29" y="336.86" width="28.07" height="28.07" fill="#ebf6ff"/><rect x="533.36" y="336.86" width="28.07" height="28.07" fill="#dae2ed"/><rect x="505.29" y="364.93" width="28.07" height="28.07" fill="#a8d7fe"/><rect x="533.36" y="364.93" width="28.07" height="28.07" fill="#8acafe"/><rect x="561.4285714285714" y="336.8571428571429" width="56.142857142857146" height="56.142857142857146" fill="#ffffff"/><rect x="561.43" y="336.86" width="28.07" height="28.07" fill="#bee1fe"/><rect x="589.5" y="336.86" width="28.07" height="28.07" fill="#ebf0f5"/><rect x="561.43" y="364.93" width="28.07" height="28.07" fill="#ffffff"/><rect x="589.5" y="364.93" width="28.07" height="28.07" fill="#9ad1fe"/></g></svg>